<svg xmlns="http://www.w3.org/2000/svg" width="25.864" height="21.553" viewBox="0 0 25.864 21.553"><defs><style>.a{fill:#b9b9b9;}</style></defs><path class="a" d="M5.387,2h9.746a5.352,5.352,0,0,1,4.252,2.081l6.25,8.034a1.078,1.078,0,0,1,0,1.323l-6.25,8.034a5.352,5.352,0,0,1-4.252,2.081H5.387A5.4,5.4,0,0,1,0,18.165V7.388A5.4,5.4,0,0,1,5.387,2ZM6.781,15.247A1.078,1.078,0,1,0,8.3,16.771L10.776,14.3l2.471,2.471a1.078,1.078,0,1,0,1.524-1.524L12.3,12.776l2.471-2.471a1.078,1.078,0,1,0-1.524-1.524l-2.471,2.471L8.3,8.782a1.078,1.078,0,1,0-1.524,1.524l2.471,2.471Z" transform="translate(0.001 -2)"/></svg>